HIERARCHY
ROOT Hips
{
  OFFSET 0 0 0
  CHANNELS 6 Xposition Yposition Zposition Zrotation Yrotation Xrotation
  JOINT LeftThigh
  {
    OFFSET 8.409438 0 -5.917753
    CHANNELS 3 Zrotation Yrotation Xrotation
    JOINT LeftLeg
    {
      OFFSET 0 0 -42.358652
      CHANNELS 3 Zrotation Yrotation Xrotation
      JOINT LeftFoot
      {
        OFFSET 0 0 -39.357303
        CHANNELS 3 Zrotation Yrotation Xrotation
      }
    }
  }
  JOINT RightThigh
  {
    OFFSET -8.409438 0 -5.917753
    CHANNELS 3 Zrotation Yrotation Xrotation
    JOINT RightLeg
    {
      OFFSET 0 0 -42.358652
      CHANNELS 3 Zrotation Yrotation Xrotation
      JOINT RightFoot
      {
        OFFSET 0 0 -39.357303
        CHANNELS 3 Zrotation Yrotation Xrotation
      }
    }
  }
  JOINT SpineLow
  {
    OFFSET 0 0 4.719101
    CHANNELS 3 Zrotation Yrotation Xrotation
    JOINT SpineMid
    {
      OFFSET 0 0 12.899191
      CHANNELS 3 Zrotation Yrotation Xrotation
      JOINT Chest
      {
        OFFSET 0 0 12.899191
        CHANNELS 3 Zrotation Yrotation Xrotation
        JOINT LeftShoulder
        {
          OFFSET 7.550562 1.41573 9.438202
          CHANNELS 3 Zrotation Yrotation Xrotation
          JOINT LeftArm
          {
            OFFSET 9.155056 0 4.247191
            CHANNELS 3 Zrotation Yrotation Xrotation
            JOINT LeftForearm
            {
              OFFSET 0 0 25.771955
              CHANNELS 3 Zrotation Yrotation Xrotation
              JOINT LeftHand
              {
                OFFSET 0 0 25.197169
                CHANNELS 3 Zrotation Yrotation Xrotation
              }
            }
          }
        }
        JOINT RightShoulder
        {
          OFFSET -7.550562 1.41573 9.438202
          CHANNELS 3 Zrotation Yrotation Xrotation
          JOINT RightArm
          {
            OFFSET -9.155056 0 4.247191
            CHANNELS 3 Zrotation Yrotation Xrotation
            JOINT RightForearm
            {
              OFFSET 0 0 -25.771955
              CHANNELS 3 Zrotation Yrotation Xrotation
              JOINT RightHand
              {
                OFFSET 0 0 -25.197169
                CHANNELS 3 Zrotation Yrotation Xrotation
              }
            }
          }
        }
        JOINT Neck
        {
          OFFSET 0 0 15.101124
          CHANNELS 3 Zrotation Yrotation Xrotation
          JOINT Head
          {
            OFFSET 0 0 11.325843
            CHANNELS 3 Zrotation Yrotation Xrotation
            End Site
            {
              OFFSET 0 0 14.157303
            }
          }
        }
      }
    }
  }
}
MOTION
Frames: 14
Frame Time: 0.01
0.0  101.685394  0.0  2.344341  32.214152  -100.571811  16.911686  -19.039407  7.451911  -11.742713  8.81916  17.373245  1.724931  1.101496  1.88226  -32.615818  23.727145  0.950224  -1.633083  2.939166  13.976893  4.4697  3.304879  -2.347141  2.458687  0.533254  1.089673  6.743899  1.344825  3.029541  6.743898  1.344825  3.02954  -5.830459  18.666192  16.026797  137.337711  35.151584  158.670768  -24.600208  10.863993  100.361916  53.536323  -18.731353  -25.484551  13.560208  12.541634  6.055746  -156.396835  64.629368  166.503525  1.268683  48.831761  -40.188101  96.499347  -13.206881  41.128301  -10.12138  -1.57176  0.950643  -7.588136  -1.194957  0.687121  
0.0  101.685394  0.0  2.550479  30.290702  -100.790774  17.687788  -19.262367  8.079116  -12.463582  9.252341  17.058664  2.673923  1.21816  1.902822  -31.793079  23.868692  0.760662  -1.117031  2.904308  14.317312  4.833042  3.324504  -2.41611  3.068214  0.691713  0.956148  8.414361  1.765705  2.696971  8.414361  1.765705  2.696971  -6.128948  15.107665  18.302455  139.476863  31.020828  157.158454  -25.231034  9.97345  100.431636  51.362443  -19.321397  -26.271843  13.382524  13.370614  6.620975  -165.262281  61.162208  162.847382  4.783563  46.235049  -38.204369  94.981347  -13.432791  42.090596  -10.950517  -2.300689  1.704002  -8.205445  -1.756733  1.237051  
0.0  101.685394  0.0  2.664085  29.096414  -101.009141  18.660698  -19.399761  8.558609  -13.199595  9.150016  16.874713  3.18476  1.388908  1.968089  -31.039236  23.969621  0.763737  -0.681108  2.782018  14.645751  4.831653  3.350766  -2.417415  3.324418  0.729196  0.917894  9.115385  1.862496  2.604289  9.115384  1.862496  2.604289  -5.674041  13.14514  19.523156  140.924431  27.022114  155.940991  -25.502701  10.314038  100.631202  50.91617  -20.103598  -26.973876  13.657296  16.00509  8.24864  -170.989901  57.719841  161.261055  3.250406  42.466274  -38.965085  97.008072  -14.880679  44.564055  -11.010384  -2.589245  1.916218  -8.248359  -1.977237  1.390771  
0.0  101.685394  0.0  2.695552  28.68394  -101.115548  19.74307  -19.418658  8.610305  -14.318275  8.882631  16.831092  3.052553  1.548646  1.888575  -30.618664  23.947727  0.777993  -0.390466  2.650371  14.952678  4.616762  3.392808  -2.380502  3.418389  0.687329  0.855493  9.368841  1.75339  2.430598  9.36884  1.75339  2.430598  -4.599502  12.65912  20.974545  141.606939  23.799894  155.158729  -25.36133  10.918386  100.821707  51.294323  -21.023484  -26.865578  14.093651  18.728723  10.228717  -178.282967  55.117126  158.013433  1.085655  43.226796  -37.793568  99.237247  -15.944847  45.031264  -10.998685  -2.646333  2.013063  -8.238935  -2.021778  1.462428  
0.0  101.685394  0.0  2.48199  28.878363  -101.05286  20.977944  -19.528476  8.135152  -15.680088  8.560768  16.830138  3.012738  1.590026  1.921825  -30.480742  23.619035  0.725504  -0.3302  2.549957  15.258363  4.284177  3.426562  -2.342934  3.565383  0.756097  0.847524  9.773343  1.936478  2.422803  9.773343  1.936478  2.422803  -3.643622  11.540512  21.96703  140.802378  20.838429  155.041687  -25.232036  10.864733  101.049553  52.161809  -22.016117  -26.682523  12.50152  19.15492  10.693092  175.727395  51.738099  155.180315  1.990311  45.279447  -33.253937  96.402768  -16.359896  45.061626  -11.668706  -3.306291  1.792733  -8.739485  -2.515052  1.281528  
0.0  101.685394  0.0  1.545634  29.452057  -100.550331  22.326419  -19.984807  6.654454  -16.624398  8.334405  17.161745  2.338885  1.455301  1.573608  -30.723091  22.376513  0.330808  -0.497519  2.466709  15.50631  4.145663  3.480296  -2.257308  3.689259  0.917314  0.777854  10.116602  2.381865  2.261163  10.116602  2.381865  2.261163  -2.977421  9.830588  22.970589  139.833565  18.617401  155.999971  -24.924362  11.024621  101.550854  55.063223  -24.660666  -27.628209  9.152993  18.118145  9.333867  176.03676  50.270383  155.612248  4.235071  45.455456  -28.905544  89.914231  -14.745207  46.040904  -12.63779  -4.61707  1.450646  -9.462294  -3.494576  0.992215  
0.0  101.685394  0.0  0.545266  31.034024  -100.712197  22.232983  -20.682536  5.91379  -17.65658  8.185076  16.90313  2.039417  1.429244  1.682461  -31.672128  21.571895  0.503111  -0.892379  2.441734  15.627611  3.843694  3.440743  -2.17149  3.556032  0.983645  0.776316  9.755047  2.567662  2.262238  9.755048  2.567663  2.262238  -2.461333  8.990791  23.520089  139.792535  16.422534  157.379377  -24.319134  12.627694  102.443484  61.155496  -25.023533  -29.266575  6.961892  17.067417  8.713747  -178.727022  51.321435  159.335538  3.305248  45.174518  -28.861278  86.562881  -12.813169  46.664216  -13.3265  -5.538551  1.40667  -9.974358  -4.186941  0.933565  
0.0  101.685394  0.0  -0.374533  32.859493  -101.397232  21.044863  -21.431739  5.827992  -17.887537  8.041649  16.823764  1.613222  1.424208  1.809156  -31.382139  20.946674  1.841498  -2.616362  2.649071  15.405628  3.736718  3.369135  -2.080457  3.171143  0.864668  0.80005  8.69865  2.253699  2.296636  8.69865  2.253699  2.296637  -0.482249  9.010673  23.662762  139.618339  14.362135  158.710546  -24.651456  13.515989  103.011544  64.188943  -24.594046  -29.398573  6.785669  16.992863  9.256822  -171.524978  53.054809  164.83472  -1.130443  44.869402  -33.001913  88.267962  -13.262112  46.429143  -13.235531  -5.583915  1.669996  -9.903566  -4.226453  1.130829  
0.0  101.685394  0.0  -0.724081  34.015337  -102.153174  19.801123  -21.902762  6.330533  -17.907656  8.041354  16.756115  1.379316  1.405511  1.908078  -31.565658  21.026576  2.769892  -3.356253  2.713789  15.195285  3.735395  3.27229  -2.008898  2.809817  0.789389  0.865956  7.709793  2.053507  2.455713  7.709793  2.053507  2.455712  2.152346  8.665298  24.045355  139.61384  13.587313  160.385819  -25.045496  13.543715  103.184176  64.126029  -24.846269  -28.969604  7.586449  16.695423  9.986165  -163.434961  54.086073  171.251104  -4.787352  43.607178  -36.694376  91.060107  -13.67894  46.822314  -12.751186  -5.400952  2.006778  -9.538643  -4.09471  1.391674  
0.0  101.685394  0.0  -0.699177  34.18406  -102.331012  19.02933  -21.875894  6.538944  -17.01358  7.591894  17.03768  0.919476  1.617008  1.996288  -30.860289  20.971246  3.396904  -4.078138  2.777212  14.87487  3.803518  3.196361  -1.970403  2.62823  0.768022  0.858967  7.212292  2.002862  2.428818  7.212292  2.002862  2.428818  4.587804  8.327223  23.761019  139.532213  13.568597  161.422754  -24.975294  13.813413  103.238574  64.273152  -24.913311  -28.771328  8.581425  16.080476  10.604425  -155.443729  54.527228  177.76192  -5.948903  42.935744  -38.427308  91.923131  -13.331813  47.555207  -12.238531  -5.131453  2.281241  -9.153713  -3.896151  1.607523  
0.0  101.685394  0.0  -0.411405  33.766614  -101.988419  18.446781  -21.432099  6.556696  -16.572728  7.462386  17.115016  1.31682  1.694273  2.130039  -29.813767  20.805143  3.637817  -4.648218  2.798765  14.482373  3.756398  3.141515  -1.963429  2.652825  0.787865  0.82701  7.279389  2.059617  2.344498  7.27939  2.059617  2.344498  6.105444  8.649111  22.754207  139.124164  14.356832  161.706744  -24.892499  13.643157  102.923093  64.434487  -24.298769  -28.650456  9.243744  15.478459  10.959508  -148.306307  54.551304  -176.217408  -6.503977  43.35653  -39.784147  92.107231  -12.604163  47.213533  -11.981911  -4.876924  2.333666  -8.962501  -3.705165  1.654105  
0.0  101.685394  0.0  -0.105374  32.968414  -101.417412  17.912223  -20.858705  6.426174  -15.725158  7.250098  17.362497  2.071306  1.815092  2.337304  -28.502937  20.486574  3.714718  -4.973007  2.747978  14.057848  3.470159  3.111215  -1.972262  2.907977  0.830965  0.900039  7.980965  2.159079  2.556765  7.980965  2.159079  2.556765  5.945961  9.332882  20.857095  138.348212  15.616595  161.780213  -25.073657  12.584447  102.227073  63.984779  -23.501255  -28.450603  9.041483  14.988042  10.328067  -143.51713  54.258576  -171.932676  -6.860372  43.820347  -40.645708  92.332234  -11.873416  46.474937  -11.954404  -4.898173  1.934754  -8.944907  -3.713174  1.354756  
0.0  101.685394  0.0  -0.158282  32.26463  -100.734416  17.064277  -20.34531  5.911274  -14.799635  7.112657  17.567173  2.804166  1.912187  2.45817  -27.56913  19.847852  3.536048  -5.153999  2.689572  13.650346  3.225525  3.074384  -1.973985  3.02556  0.804235  0.864698  8.300171  2.085928  2.460601  8.30017  2.085929  2.460601  6.053908  10.261529  19.577732  137.429545  16.932569  161.895455  -25.504337  10.829256  101.369382  62.901975  -22.706992  -28.034429  9.534837  14.907357  9.839268  -141.039984  54.274046  -169.80702  -7.583663  44.064496  -41.416184  92.52805  -11.309487  45.872637  -11.677497  -4.692287  1.613988  -8.740881  -3.5516  1.120444  
0.0  101.685394  0.0  -0.51525  31.676309  -100.151471  16.293168  -20.156287  5.196834  -13.784344  7.056473  17.83709  3.430426  1.989319  2.531689  -26.818745  19.016841  3.362692  -5.290391  2.63078  13.283675  2.961376  3.015913  -1.996267  3.026457  0.720805  0.78801  8.29705  1.867937  2.240745  8.297049  1.867937  2.240745  6.354292  11.394816  18.577999  136.657609  18.131885  161.829381  -25.844201  9.069359  100.56576  61.529802  -22.11751  -27.494799  10.584879  15.040349  9.601657  -140.298901  54.405715  -169.21438  -8.702833  44.085727  -42.109565  92.818903  -10.975658  45.342829  -10.704878  -4.471293  1.508793  -8.013582  -3.381135  1.052929  
